<svg width="48" height="32" viewBox="0 0 48 32" fill="none" xmlns="http://www.w3.org/2000/svg">
<path d="M24 0.5C30.5425 0.5 36.4431 2.26903 40.6934 5.10254C44.947 7.93836 47.5 11.801 47.5 16C47.5 20.199 44.947 24.0616 40.6934 26.8975C36.4431 29.731 30.5425 31.5 24 31.5C17.4575 31.5 11.5569 29.731 7.30664 26.8975C3.05301 24.0616 0.5 20.199 0.5 16C0.5 11.801 3.05301 7.93836 7.30664 5.10254C11.5569 2.26903 17.4575 0.5 24 0.5Z" stroke="black"/>
<g clip-path="url(#clip0_11584_17457)">
<path d="M23.8637 7.3505L24.5117 6.2305C24.9117 5.5305 25.8037 5.29449 26.5037 5.69449C27.2037 6.09449 27.4397 6.98649 27.0397 7.68649L20.7957 18.4945H25.3117C26.7757 18.4945 27.5957 20.2145 26.9597 21.4065H13.7197C12.9117 21.4065 12.2637 20.7585 12.2637 19.9505C12.2637 19.1425 12.9117 18.4945 13.7197 18.4945H17.4317L22.1837 10.2585L20.6997 7.6825C20.2997 6.9825 20.5357 6.0985 21.2357 5.6905C21.9357 5.2905 22.8197 5.52649 23.2277 6.22649L23.8637 7.3505ZM18.2477 22.9065L16.8477 25.3345C16.4477 26.0345 15.5557 26.2705 14.8557 25.8705C14.1557 25.4705 13.9197 24.5785 14.3197 23.8785L15.3597 22.0785C16.5357 21.7145 17.4917 21.9945 18.2477 22.9065ZM30.3037 18.5025H34.0917C34.8997 18.5025 35.5477 19.1505 35.5477 19.9585C35.5477 20.7665 34.8997 21.4145 34.0917 21.4145H31.9877L33.4077 23.8785C33.8077 24.5785 33.5717 25.4625 32.8717 25.8705C32.1717 26.2705 31.2877 26.0345 30.8797 25.3345C28.4877 21.1865 26.6917 18.0825 25.4997 16.0145C24.2797 13.9105 25.1517 11.7985 26.0117 11.0825C26.9677 12.7225 28.3957 15.1985 30.3037 18.5025Z" fill="black"/>
</g>
<defs>
<clipPath id="clip0_11584_17457">
<rect width="32" height="32" fill="white" transform="translate(8)"/>
</clipPath>
</defs>
</svg>
