<svg width="48" height="32" viewBox="0 0 48 32" fill="none" xmlns="http://www.w3.org/2000/svg">
<path d="M24 0.5C30.5425 0.5 36.4431 2.26903 40.6934 5.10254C44.947 7.93836 47.5 11.801 47.5 16C47.5 20.199 44.947 24.0616 40.6934 26.8975C36.4431 29.731 30.5425 31.5 24 31.5C17.4575 31.5 11.5569 29.731 7.30664 26.8975C3.05301 24.0616 0.5 20.199 0.5 16C0.5 11.801 3.05301 7.93836 7.30664 5.10254C11.5569 2.26903 17.4575 0.5 24 0.5Z" stroke="black"/>
<g clip-path="url(#clip0_11644_16983)">
<path d="M23.3767 10.0656C23.3767 9.79813 23.4242 9.54937 23.5186 9.32125C23.6123 9.09437 23.7542 8.8875 23.943 8.70188C24.1305 8.5175 24.3361 8.37687 24.558 8.28312C24.7811 8.18937 25.0211 8.14062 25.278 8.14062C25.5355 8.14062 25.7755 8.18938 25.9961 8.2825C26.2173 8.37688 26.4198 8.5175 26.6055 8.70312C26.7898 8.88875 26.928 9.09438 27.0205 9.3225C27.1136 9.54938 27.1592 9.79813 27.1592 10.0656C27.1592 10.3263 27.1136 10.5706 27.0211 10.7963C26.9286 11.0213 26.7911 11.23 26.6055 11.4194C26.4217 11.6088 26.2192 11.7519 25.998 11.8469C25.7767 11.9413 25.5367 11.99 25.278 11.99C25.0142 11.99 24.7692 11.9425 24.5436 11.8488C24.3198 11.7544 24.1148 11.6119 23.9292 11.4244C23.7455 11.2356 23.6067 11.0281 23.5148 10.8013C23.4223 10.575 23.3767 10.33 23.3767 10.0656ZM24.2142 21.2006C24.1448 21.4487 24.0048 21.9356 24.4205 21.9356C24.5105 21.9356 24.6248 21.885 24.7617 21.7856C24.9098 21.6787 25.0798 21.5162 25.2698 21.3012C25.463 21.0825 25.6648 20.8231 25.8742 20.525C26.0823 20.2275 26.3017 19.8862 26.5298 19.5056C26.553 19.465 26.6067 19.4512 26.648 19.4756L27.4205 20.0494C27.458 20.0762 27.4661 20.1275 27.4423 20.1656C27.0867 20.7831 26.7273 21.3225 26.3636 21.7831C25.998 22.2462 25.6267 22.6312 25.2511 22.935L25.2448 22.9387C24.8686 23.2437 24.483 23.4731 24.088 23.6269C22.9892 24.0525 21.253 23.9831 20.7555 22.7C20.4417 21.89 20.6992 20.9694 20.9467 20.1769L22.1942 16.3994C22.2742 16.1131 22.3748 15.7981 22.4111 15.5038C22.4717 15.0119 22.2555 14.6938 21.7198 14.6938H20.6292C20.5817 14.6938 20.543 14.655 20.543 14.6075L20.548 14.5775L20.8342 13.535C20.8442 13.4963 20.8798 13.47 20.9186 13.4713L26.4886 13.2969C26.5361 13.295 26.5767 13.3325 26.5786 13.38L26.5742 13.4069L24.2142 21.2006Z" fill="black"/>
</g>
<defs>
<clipPath id="clip0_11644_16983">
<rect width="32" height="32" fill="white" transform="translate(8)"/>
</clipPath>
</defs>
</svg>
