<svg width="48" height="52" viewBox="0 0 48 52" fill="none" xmlns="http://www.w3.org/2000/svg">
<path d="M14.32 27.796H23.472C23.252 27.444 23.032 27.136 22.812 26.85L24.77 26.542C25.034 26.916 25.276 27.334 25.54 27.796H33.636V29.512H23.78C22.922 30.348 21.844 31.14 20.524 31.844V34.22C22.152 33.912 23.692 33.538 25.122 33.142L25.408 34.814C23.472 35.298 21.096 35.782 18.324 36.222L17.972 34.748C18.456 34.55 18.698 34.264 18.698 33.89V32.724C17.598 33.164 16.388 33.604 15.112 34L14.122 32.35C17.422 31.602 19.886 30.656 21.558 29.512H14.32V27.796ZM30.534 29.93L31.876 31.096C31.172 31.844 30.336 32.504 29.368 33.098C30.688 33.78 32.25 34.308 34.054 34.682L32.932 36.31C28.928 35.32 26.09 33.494 24.396 30.81L25.782 30.018C26.31 30.832 27.014 31.558 27.872 32.196C28.906 31.514 29.786 30.766 30.534 29.93ZM16.982 18.842C16.85 19.172 16.696 19.48 16.542 19.766L14.87 19.26C15.442 18.336 15.816 17.258 15.97 16.07L17.598 16.268C17.554 16.62 17.488 16.95 17.444 17.258H19.468V16.004H21.36V17.258H25.144V18.842H21.36V19.942H25.892V21.526H21.36V22.516H25.452V25.156C25.452 25.926 24.836 26.322 23.604 26.322H22.306L21.976 24.98L23.076 25.024C23.472 25.024 23.67 24.87 23.67 24.606V23.924H21.36V26.784H19.468V23.924H17.334V26.454H15.574V22.516H19.468V21.526H14.474V19.942H19.468V18.842H16.982ZM26.75 17.192H28.642V23.682H26.75V17.192ZM30.842 26.674H28.202L27.806 24.848C28.642 24.892 29.434 24.936 30.182 24.936C30.688 24.936 30.952 24.738 30.952 24.342V15.982H32.844V24.782C32.844 26.036 32.162 26.674 30.842 26.674Z" fill="black"/>
<path d="M46.0166 13.2881V38.7109L24 51.4229L1.9834 38.7109V13.2881L24 0.576172L46.0166 13.2881Z" stroke="black"/>
</svg>
