<svg width="48" height="52" viewBox="0 0 48 52" fill="none" xmlns="http://www.w3.org/2000/svg">
<path d="M13.44 28.232H23.424C23.184 27.848 22.944 27.512 22.704 27.2L24.84 26.864C25.128 27.272 25.392 27.728 25.68 28.232H34.512V30.104H23.76C22.824 31.016 21.648 31.88 20.208 32.648V35.24C21.984 34.904 23.664 34.496 25.224 34.064L25.536 35.888C23.424 36.416 20.832 36.944 17.808 37.424L17.424 35.816C17.952 35.6 18.216 35.288 18.216 34.88V33.608C17.016 34.088 15.696 34.568 14.304 35L13.224 33.2C16.824 32.384 19.512 31.352 21.336 30.104H13.44V28.232ZM31.128 30.56L32.592 31.832C31.824 32.648 30.912 33.368 29.856 34.016C31.296 34.76 33 35.336 34.968 35.744L33.744 37.52C29.376 36.44 26.28 34.448 24.432 31.52L25.944 30.656C26.52 31.544 27.288 32.336 28.224 33.032C29.352 32.288 30.312 31.472 31.128 30.56ZM16.344 18.464C16.2 18.824 16.032 19.16 15.864 19.472L14.04 18.92C14.664 17.912 15.072 16.736 15.24 15.44L17.016 15.656C16.968 16.04 16.896 16.4 16.848 16.736H19.056V15.368H21.12V16.736H25.248V18.464H21.12V19.664H26.064V21.392H21.12V22.472H25.584V25.352C25.584 26.192 24.912 26.624 23.568 26.624H22.152L21.792 25.16L22.992 25.208C23.424 25.208 23.64 25.04 23.64 24.752V24.008H21.12V27.128H19.056V24.008H16.728V26.768H14.808V22.472H19.056V21.392H13.608V19.664H19.056V18.464H16.344ZM27 16.664H29.064V23.744H27V16.664ZM31.464 27.008H28.584L28.152 25.016C29.064 25.064 29.928 25.112 30.744 25.112C31.296 25.112 31.584 24.896 31.584 24.464V15.344H33.648V24.944C33.648 26.312 32.904 27.008 31.464 27.008Z" fill="black"/>
<path d="M46.0166 13.2881V38.7109L24 51.4229L1.9834 38.7109V13.2881L24 0.576172L46.0166 13.2881Z" stroke="black"/>
</svg>
